<?xml version="1.0" standalone="no"?><!-- Generator: Gravit.io --><svg xmlns="http://www.w3.org/2000/svg" xmlns:xlink="http://www.w3.org/1999/xlink" style="isolation:isolate" viewBox="0 0 400 400" width="400" height="400"><defs><clipPath id="_clipPath_0AFUOo6KmD17FTImbk4hVLkY5AEQc6UD"><rect width="400" height="400"/></clipPath></defs><g clip-path="url(#_clipPath_0AFUOo6KmD17FTImbk4hVLkY5AEQc6UD)"><path d=" M 52.5 199.335 C 52.5 116.548 119.713 49.335 202.5 49.335 C 285.287 49.335 352.5 116.548 352.5 199.335 C 352.5 282.123 285.287 349.335 202.5 349.335 C 119.713 349.335 52.5 282.123 52.5 199.335 Z " fill="rgb(255,207,153)" vector-effect="non-scaling-stroke" stroke-width="12" stroke="rgb(86,65,56)" stroke-linejoin="miter" stroke-linecap="square" stroke-miterlimit="3"/><clipPath id="_clipPath_AWnk5SI1FSSmlWrpUozaxORFDf3juKZQ"><path d=" M 52.5 199.335 C 52.5 116.548 119.713 49.335 202.5 49.335 C 285.287 49.335 352.5 116.548 352.5 199.335 C 352.5 282.123 285.287 349.335 202.5 349.335 C 119.713 349.335 52.5 282.123 52.5 199.335 Z " fill="rgb(255,207,153)" vector-effect="non-scaling-stroke" stroke-width="12" stroke="rgb(86,65,56)" stroke-linejoin="miter" stroke-linecap="square" stroke-miterlimit="3"/></clipPath><g clip-path="url(#_clipPath_AWnk5SI1FSSmlWrpUozaxORFDf3juKZQ)"><g id="Group"><path d=" M 10.204 391.335 C 5.83 404.097 3.5 417.506 3.5 431.335 C 3.5 516.882 92.669 586.335 202.5 586.335 C 312.331 586.335 401.5 516.882 401.5 431.335 C 401.5 417.507 399.17 404.099 394.797 391.338 C 394.796 391.337 394.796 391.336 394.796 391.335 C 394.796 391.335 394.796 391.334 394.796 391.334 C 399.17 378.572 401.5 365.164 401.5 351.335 C 401.5 265.788 312.331 196.335 202.5 196.335 C 92.669 196.335 3.5 265.788 3.5 351.335 C 3.5 365.165 5.83 378.573 10.204 391.335 Z  M 10.205 391.337 C 32.871 325.149 110.425 276.337 202.501 276.337 C 294.576 276.337 372.13 325.148 394.796 391.334 C 394.797 391.335 394.797 391.336 394.797 391.337 C 394.797 391.337 394.797 391.337 394.797 391.338 C 372.131 457.524 294.577 506.337 202.501 506.337 C 110.425 506.337 32.871 457.524 10.205 391.337 Z " fill-rule="evenodd" fill="rgb(86,65,56)"/></g></g><g id="coffee-grain"><g id="Group"><path d=" M 164.141 310.829 C 163.884 310.552 163.906 310.097 164.187 309.847 C 167.86 306.583 174.206 307.73 178.728 312.61 C 183.25 317.489 184.313 324.335 181.288 328.298 C 181.057 328.601 180.635 328.625 180.378 328.348 L 164.141 310.829 Z " fill="rgb(91,48,0)"/><path d=" M 178.859 329.987 C 179.116 330.264 179.094 330.719 178.813 330.969 C 175.14 334.233 168.794 333.085 164.272 328.206 C 159.75 323.327 158.687 316.481 161.712 312.518 C 161.943 312.215 162.365 312.191 162.622 312.468 L 178.859 329.987 Z " fill="rgb(91,48,0)"/></g><g id="Group"><path d=" M 164.141 310.829 C 163.884 310.552 163.906 310.097 164.187 309.847 C 166.1 308.148 168.737 307.644 171.465 308.241 L 171.461 318.726 L 164.141 310.829 Z " fill="rgb(165,64,45)"/><path d=" M 171.494 332.566 C 168.997 332.009 166.427 330.532 164.272 328.206 C 159.75 323.327 158.687 316.481 161.712 312.518 C 161.943 312.215 162.365 312.191 162.622 312.468 L 171.468 322.013 L 171.494 332.566 Z " fill="rgb(165,64,45)"/></g></g><g id="coffee-grain"><g id="Group"><path d=" M 192.641 292.829 C 192.384 292.552 192.406 292.097 192.687 291.847 C 196.36 288.583 202.706 289.73 207.228 294.61 C 211.75 299.489 212.813 306.335 209.788 310.298 C 209.557 310.601 209.135 310.625 208.878 310.348 L 192.641 292.829 Z " fill="rgb(91,48,0)"/><path d=" M 207.359 311.987 C 207.616 312.264 207.594 312.719 207.313 312.969 C 203.64 316.233 197.294 315.085 192.772 310.206 C 188.25 305.327 187.187 298.481 190.212 294.518 C 190.443 294.215 190.865 294.191 191.122 294.468 L 207.359 311.987 Z " fill="rgb(91,48,0)"/></g><g id="Group"><path d=" M 192.641 292.829 C 192.384 292.552 192.406 292.097 192.687 291.847 C 194.6 290.148 197.237 289.644 199.965 290.241 L 199.961 300.726 L 192.641 292.829 Z " fill="rgb(165,64,45)"/><path d=" M 199.994 314.566 C 197.497 314.009 194.927 312.532 192.772 310.206 C 188.25 305.327 187.187 298.481 190.212 294.518 C 190.443 294.215 190.865 294.191 191.122 294.468 L 199.968 304.013 L 199.994 314.566 Z " fill="rgb(165,64,45)"/></g></g><g id="coffee-grain"><g id="Group"><path d=" M 224.141 310.829 C 223.884 310.552 223.906 310.097 224.187 309.847 C 227.86 306.583 234.206 307.73 238.728 312.61 C 243.25 317.489 244.313 324.335 241.288 328.298 C 241.057 328.601 240.635 328.625 240.378 328.348 L 224.141 310.829 Z " fill="rgb(91,48,0)"/><path d=" M 238.859 329.987 C 239.116 330.264 239.094 330.719 238.813 330.969 C 235.14 334.233 228.794 333.085 224.272 328.206 C 219.75 323.327 218.687 316.481 221.712 312.518 C 221.943 312.215 222.365 312.191 222.622 312.468 L 238.859 329.987 Z " fill="rgb(91,48,0)"/></g><g id="Group"><path d=" M 224.141 310.829 C 223.884 310.552 223.906 310.097 224.187 309.847 C 226.1 308.148 228.737 307.644 231.465 308.241 L 231.461 318.726 L 224.141 310.829 Z " fill="rgb(165,64,45)"/><path d=" M 231.494 332.566 C 228.997 332.009 226.427 330.532 224.272 328.206 C 219.75 323.327 218.687 316.481 221.712 312.518 C 221.943 312.215 222.365 312.191 222.622 312.468 L 231.468 322.013 L 231.494 332.566 Z " fill="rgb(165,64,45)"/></g></g><g id="coffeehub"><g id="Group"><g id="Group"><g id="Group"><path d=" M 137.806 253.615 C 137.171 254.148 136.606 254.789 136.076 255.5 C 135.547 256.212 135.052 256.959 134.593 257.777 C 134.099 258.596 133.605 259.45 133.111 260.339 C 132.616 261.229 132.051 262.118 131.416 262.972 C 130.78 263.826 130.074 264.716 129.333 265.569 C 128.556 266.459 127.673 267.313 126.649 268.202 C 125.661 269.092 124.496 269.946 123.225 270.8 C 121.953 271.654 120.471 272.508 118.811 273.362 C 116.975 274.322 115.174 274.856 113.374 275.034 C 111.573 275.212 109.843 275.069 108.148 274.607 C 106.489 274.144 104.935 273.397 103.523 272.33 C 102.111 271.262 100.91 269.946 99.957 268.416 C 99.286 267.348 98.721 266.103 98.262 264.68 C 97.803 263.257 97.45 261.727 97.238 260.09 C 97.026 258.453 96.956 256.746 97.026 254.967 C 97.097 253.188 97.309 251.373 97.733 249.594 C 98.121 247.779 98.721 246 99.463 244.257 C 100.204 242.513 101.157 240.841 102.287 239.276 C 103.417 237.71 104.723 236.287 106.242 235.006 C 107.76 233.725 109.455 232.658 111.326 231.804 C 112.526 231.27 113.868 230.879 115.245 230.665 C 116.622 230.452 117.964 230.487 119.235 230.736 C 120.506 230.986 121.671 231.519 122.695 232.302 C 123.719 233.085 124.496 234.188 125.025 235.575 C 125.378 236.536 125.555 237.568 125.555 238.671 C 125.555 239.774 125.378 240.912 125.096 242.051 C 124.778 243.19 124.354 244.328 123.789 245.467 C 123.225 246.605 122.589 247.673 121.812 248.669 C 121.071 249.665 120.223 250.555 119.305 251.373 C 118.387 252.191 117.434 252.832 116.375 253.33 C 114.998 253.97 113.903 254.326 113.091 254.362 C 112.279 254.397 111.714 254.148 111.432 253.579 C 111.397 253.472 111.326 253.365 111.255 253.223 C 111.185 253.081 111.114 252.938 111.043 252.796 C 110.938 252.583 110.832 252.334 110.761 252.085 C 110.69 251.835 110.62 251.586 110.62 251.337 C 110.62 251.088 110.655 250.875 110.796 250.661 C 110.902 250.448 111.114 250.27 111.432 250.128 C 111.608 250.021 111.785 249.985 111.961 249.95 C 112.138 249.914 112.315 249.879 112.491 249.879 C 112.668 249.843 112.915 249.807 113.162 249.736 C 113.409 249.665 113.727 249.523 114.115 249.345 C 115.104 248.882 116.022 248.242 116.904 247.424 C 117.787 246.605 118.493 245.716 119.023 244.684 C 119.588 243.688 119.941 242.62 120.117 241.517 C 120.294 240.414 120.153 239.311 119.694 238.244 C 119.447 237.675 119.129 237.176 118.74 236.75 C 118.317 236.323 117.822 236.002 117.222 235.824 C 116.622 235.647 115.916 235.575 115.104 235.647 C 114.292 235.718 113.374 236.002 112.385 236.465 C 111.185 236.999 110.125 237.746 109.208 238.671 C 108.254 239.596 107.442 240.663 106.771 241.837 C 106.065 243.012 105.536 244.292 105.077 245.645 C 104.653 247.032 104.335 248.42 104.123 249.843 C 103.911 251.266 103.841 252.689 103.841 254.148 C 103.841 255.571 103.982 256.959 104.159 258.276 C 104.37 259.592 104.653 260.837 105.006 261.976 C 105.359 263.114 105.783 264.146 106.277 265 C 106.983 266.281 107.795 267.277 108.678 268.024 C 109.561 268.772 110.514 269.27 111.502 269.554 C 112.491 269.839 113.55 269.875 114.645 269.697 C 115.739 269.519 116.904 269.127 118.07 268.523 C 119.553 267.775 120.859 266.921 121.989 265.961 C 123.119 265 124.142 263.968 125.096 262.901 C 126.049 261.798 126.932 260.659 127.744 259.485 C 128.591 258.311 129.439 257.101 130.286 255.927 C 131.169 254.753 132.087 253.579 133.04 252.476 C 133.993 251.373 135.123 250.306 136.324 249.38 C 136.888 251.017 137.206 251.871 137.806 253.615 Z " fill="rgb(255,207,153)"/><path d=" M 146.28 241.233 C 146.951 241.873 147.516 242.585 148.01 243.367 C 148.469 244.15 148.858 245.075 149.14 246.143 C 149.352 246.925 149.458 247.744 149.493 248.598 C 149.528 249.452 149.458 250.306 149.281 251.124 C 149.105 251.978 148.858 252.796 148.54 253.579 C 148.187 254.397 147.763 255.109 147.233 255.785 C 146.704 256.461 146.104 257.066 145.397 257.599 C 144.691 258.133 143.915 258.525 143.032 258.845 C 141.761 259.272 140.596 259.414 139.501 259.236 C 138.407 259.058 137.453 258.702 136.571 258.098 C 135.688 257.528 134.947 256.781 134.276 255.892 C 133.64 255.002 133.111 254.041 132.722 253.01 C 132.087 251.337 131.769 249.772 131.839 248.349 C 131.91 246.925 132.228 245.573 132.863 244.328 C 133.499 243.083 134.452 241.909 135.688 240.912 C 136.924 239.881 138.477 239.098 140.243 238.529 C 141.796 238.03 143.279 237.781 144.727 237.781 C 146.174 237.781 147.587 237.959 148.928 238.279 C 150.27 238.6 151.576 239.169 152.812 239.916 C 154.048 240.663 155.213 241.375 156.272 242.087 C 156.343 243.261 156.413 243.83 156.484 245.004 C 155.954 244.613 155.248 244.257 154.401 243.866 C 153.553 243.474 152.635 243.083 151.647 242.62 C 150.658 242.158 149.705 241.802 148.787 241.553 C 147.869 241.304 147.057 241.09 146.421 240.948 C 146.351 241.09 146.315 241.126 146.28 241.233 Z  M 142.608 254.824 C 143.103 254.646 143.526 254.255 143.879 253.686 C 144.197 253.081 144.444 252.369 144.621 251.586 C 144.762 250.804 144.797 249.879 144.727 248.811 C 144.656 247.779 144.515 246.854 144.268 246.107 C 144.091 245.502 143.844 244.969 143.597 244.47 C 143.314 243.972 143.032 243.581 142.679 243.296 C 142.326 242.976 141.973 242.763 141.549 242.656 C 141.125 242.549 140.666 242.549 140.172 242.727 C 139.536 242.94 138.972 243.367 138.548 244.008 C 138.124 244.648 137.806 245.395 137.595 246.249 C 137.383 247.103 137.312 247.993 137.383 248.954 C 137.418 249.879 137.63 250.91 138.018 251.978 C 138.195 252.512 138.442 253.01 138.724 253.437 C 139.007 253.864 139.325 254.219 139.713 254.504 C 140.101 254.789 140.525 254.931 141.019 255.002 C 141.478 255.073 142.043 255.002 142.608 254.824 Z " fill="rgb(255,207,153)"/><path d=" M 154.93 256.07 C 154.93 255.998 154.825 255.607 154.683 254.86 C 154.542 254.113 154.366 253.116 154.154 251.835 C 153.977 250.59 153.73 249.131 153.483 247.459 C 153.236 245.787 153.059 244.043 152.918 242.158 C 152.777 240.272 152.706 238.351 152.671 236.358 C 152.635 234.366 152.741 232.409 152.953 230.452 C 153.165 228.495 153.483 226.645 153.942 224.866 C 154.401 223.087 155.036 221.486 155.848 220.062 C 156.661 218.639 157.649 217.465 158.814 216.504 C 159.979 215.544 161.392 214.939 162.981 214.654 C 163.581 214.547 164.252 214.512 164.958 214.547 C 165.664 214.583 166.299 214.761 166.935 215.01 C 167.535 215.295 168.065 215.686 168.524 216.22 C 168.983 216.753 169.265 217.429 169.406 218.319 C 169.512 219.102 169.477 220.062 169.301 221.13 C 169.124 222.197 168.842 223.407 168.418 224.652 C 167.994 225.933 167.5 227.25 166.935 228.673 C 166.37 230.06 165.735 231.484 165.028 232.907 C 164.322 234.33 163.616 235.753 162.875 237.141 C 162.133 238.564 161.356 239.881 160.544 241.161 C 160.544 241.304 160.544 241.375 160.58 241.482 C 160.897 241.304 161.109 241.161 161.286 241.09 C 161.462 241.019 161.604 240.984 161.815 240.912 C 162.027 240.877 162.204 240.841 162.345 240.841 C 162.486 240.841 162.627 240.841 162.733 240.877 C 162.839 240.877 162.981 240.912 163.086 240.912 C 163.228 240.912 163.369 240.912 163.545 240.877 C 165.134 240.557 166.476 240.165 167.641 239.631 C 168.806 239.098 169.76 238.564 170.536 238.066 C 171.454 237.461 172.231 236.821 172.867 236.109 C 172.937 238.137 172.972 239.133 173.043 241.126 C 172.055 241.766 171.031 242.336 169.971 242.798 C 168.877 243.261 167.888 243.652 166.935 243.972 C 165.876 244.328 164.746 244.648 163.651 244.897 C 164.428 245.645 165.134 246.463 165.805 247.317 C 166.37 248.064 166.9 248.918 167.429 249.843 C 167.959 250.804 168.312 251.8 168.488 252.832 C 168.524 252.938 168.524 253.223 168.559 253.615 C 168.594 254.006 168.594 254.504 168.63 255.073 C 168.63 255.643 168.63 256.319 168.594 257.03 C 168.559 257.742 168.453 258.489 168.347 259.236 C 168.206 259.983 168.029 260.731 167.782 261.442 C 167.535 262.154 167.217 262.83 166.829 263.435 C 166.441 264.039 165.946 264.573 165.381 265 C 164.817 265.427 164.146 265.747 163.334 265.925 C 162.592 266.103 161.886 266.103 161.25 265.89 C 160.615 265.676 160.015 265.356 159.485 264.893 C 158.955 264.431 158.426 263.862 157.967 263.186 C 157.508 262.51 157.084 261.762 156.731 260.98 C 156.378 260.197 156.025 259.378 155.743 258.525 C 155.389 257.706 155.142 256.852 154.93 256.07 Z  M 158.426 244.115 C 158.355 244.115 158.32 244.292 158.32 244.613 C 158.32 244.933 158.32 245.324 158.391 245.787 C 158.461 246.249 158.532 246.925 158.673 247.815 C 158.779 248.669 158.885 249.38 158.955 249.95 C 159.026 250.519 159.097 251.017 159.203 251.515 C 159.273 252.013 159.344 252.405 159.414 252.689 C 159.873 254.646 160.262 256.212 160.615 257.35 C 160.968 258.489 161.25 259.343 161.533 259.912 C 161.78 260.481 162.027 260.837 162.204 260.98 C 162.38 261.122 162.557 261.193 162.733 261.158 C 163.228 261.051 163.581 260.766 163.757 260.268 C 163.969 259.805 164.075 259.201 164.11 258.56 C 164.146 257.884 164.075 257.173 163.969 256.39 C 163.863 255.607 163.722 254.895 163.581 254.184 C 163.475 253.721 163.334 253.152 163.157 252.476 C 162.981 251.8 162.769 251.088 162.557 250.306 C 162.345 249.523 162.027 248.669 161.604 247.708 C 161.18 246.748 160.756 246.072 160.297 245.645 C 159.838 245.218 159.45 244.862 159.132 244.542 C 158.85 244.186 158.602 244.043 158.426 244.115 Z  M 160.297 221.77 C 159.626 223.763 159.132 225.613 158.814 227.356 C 158.532 228.957 158.355 230.345 158.32 231.555 C 158.285 232.765 158.285 233.796 158.355 234.686 C 158.426 235.575 158.461 236.394 158.532 237.141 C 159.238 235.362 160.015 233.654 160.862 231.946 C 161.709 230.238 162.451 228.673 163.086 227.25 C 163.722 225.791 164.252 224.439 164.675 223.122 C 165.099 221.806 165.276 220.916 165.205 220.383 C 165.099 219.671 164.852 219.173 164.534 218.888 C 164.216 218.604 163.757 218.532 163.122 218.639 C 162.168 218.817 161.533 219.102 161.25 219.493 C 161.039 219.778 160.721 220.561 160.297 221.77 Z " fill="rgb(255,207,153)"/><path d=" M 171.701 252.476 C 171.701 252.405 171.631 251.978 171.56 251.231 C 171.49 250.483 171.384 249.452 171.313 248.171 C 171.242 246.89 171.172 245.431 171.066 243.759 C 170.96 242.087 170.96 240.308 170.995 238.422 C 171.031 236.536 171.137 234.615 171.278 232.622 C 171.454 230.63 171.701 228.673 172.09 226.787 C 172.478 224.866 172.972 223.051 173.608 221.343 C 174.244 219.6 175.02 218.07 175.938 216.753 C 176.856 215.401 177.951 214.334 179.222 213.48 C 180.493 212.626 181.905 212.164 183.529 212.021 C 184.13 211.986 184.8 211.986 185.507 212.092 C 186.213 212.199 186.848 212.413 187.413 212.733 C 188.013 213.053 188.472 213.516 188.896 214.085 C 189.284 214.654 189.532 215.366 189.567 216.255 C 189.602 217.074 189.496 217.999 189.214 219.066 C 188.931 220.134 188.543 221.272 188.013 222.482 C 187.484 223.692 186.884 224.972 186.177 226.325 C 185.471 227.677 184.73 229.029 183.882 230.381 C 183.07 231.733 182.223 233.085 181.34 234.401 C 180.458 235.718 179.575 236.999 178.657 238.173 C 178.657 238.315 178.657 238.386 178.657 238.493 C 178.975 238.351 179.222 238.244 179.398 238.173 C 179.575 238.102 179.752 238.066 179.928 238.066 C 180.14 238.03 180.352 238.03 180.458 238.066 C 180.599 238.066 180.74 238.102 180.846 238.137 C 180.952 238.173 181.093 238.173 181.199 238.208 C 181.305 238.208 181.482 238.208 181.658 238.208 C 183.247 238.03 184.624 237.746 185.824 237.354 C 187.025 236.927 188.049 236.5 188.861 236.038 C 189.814 235.504 190.661 234.935 191.368 234.294 C 191.262 236.323 191.191 237.319 191.085 239.311 C 190.061 239.881 189.002 240.308 187.872 240.663 C 186.742 241.019 185.718 241.304 184.765 241.553 C 183.671 241.802 182.541 242.015 181.411 242.158 C 182.117 242.976 182.753 243.866 183.318 244.791 C 183.812 245.573 184.271 246.463 184.695 247.459 C 185.118 248.455 185.365 249.487 185.471 250.519 C 185.471 250.626 185.471 250.91 185.471 251.302 C 185.471 251.693 185.436 252.191 185.401 252.761 C 185.365 253.33 185.295 253.97 185.189 254.682 C 185.083 255.394 184.942 256.105 184.73 256.852 C 184.518 257.599 184.271 258.311 183.953 258.987 C 183.635 259.699 183.282 260.304 182.823 260.873 C 182.364 261.442 181.87 261.905 181.234 262.296 C 180.634 262.687 179.928 262.937 179.116 263.043 C 178.339 263.15 177.668 263.079 177.033 262.83 C 176.397 262.581 175.868 262.189 175.373 261.691 C 174.879 261.193 174.42 260.553 174.032 259.841 C 173.643 259.129 173.29 258.347 173.008 257.528 C 172.725 256.71 172.443 255.856 172.266 255.002 C 172.019 254.148 171.843 253.294 171.701 252.476 Z  M 176.221 240.912 C 176.15 240.912 176.115 241.09 176.08 241.411 C 176.044 241.731 176.044 242.122 176.044 242.62 C 176.044 243.118 176.08 243.759 176.115 244.648 C 176.15 245.538 176.185 246.249 176.221 246.819 C 176.256 247.388 176.291 247.922 176.327 248.42 C 176.362 248.918 176.397 249.309 176.433 249.594 C 176.715 251.586 176.962 253.188 177.209 254.326 C 177.457 255.5 177.668 256.39 177.88 256.959 C 178.092 257.564 178.269 257.92 178.445 258.098 C 178.622 258.276 178.798 258.347 178.939 258.311 C 179.434 258.24 179.787 257.991 180.034 257.528 C 180.281 257.066 180.458 256.496 180.528 255.856 C 180.599 255.18 180.634 254.468 180.599 253.686 C 180.564 252.903 180.493 252.156 180.422 251.48 C 180.352 251.017 180.281 250.412 180.175 249.736 C 180.069 249.06 179.928 248.313 179.787 247.495 C 179.646 246.712 179.398 245.787 179.081 244.826 C 178.763 243.83 178.41 243.118 177.986 242.656 C 177.562 242.193 177.209 241.802 176.962 241.446 C 176.644 241.019 176.433 240.877 176.221 240.912 Z  M 180.14 218.817 C 179.293 220.738 178.622 222.553 178.163 224.261 C 177.739 225.826 177.457 227.214 177.28 228.388 C 177.139 229.562 177.033 230.63 177.033 231.519 C 177.033 232.409 176.998 233.227 176.962 234.01 C 177.81 232.338 178.763 230.665 179.752 229.064 C 180.74 227.463 181.623 225.969 182.4 224.581 C 183.176 223.193 183.812 221.877 184.341 220.632 C 184.871 219.351 185.154 218.461 185.118 217.963 C 185.048 217.252 184.906 216.718 184.589 216.398 C 184.306 216.077 183.847 215.935 183.212 216.006 C 182.223 216.077 181.587 216.326 181.27 216.682 C 181.058 216.931 180.669 217.679 180.14 218.817 Z " fill="rgb(255,207,153)"/><path d=" M 197.546 249.309 C 196.134 249.345 194.898 249.131 193.804 248.704 C 192.709 248.277 191.791 247.673 191.05 246.925 C 190.273 246.178 189.708 245.289 189.249 244.257 C 188.825 243.225 188.578 242.158 188.472 240.984 C 188.437 240.236 188.543 239.311 188.79 238.244 C 189.073 237.176 189.355 236.216 189.673 235.397 C 189.991 234.579 190.414 233.761 190.909 233.014 C 191.438 232.266 192.038 231.555 192.78 230.986 C 193.521 230.381 194.333 229.918 195.287 229.562 C 196.205 229.207 197.264 229.029 198.429 228.993 C 199.382 228.993 200.23 229.1 201.042 229.349 C 201.854 229.598 202.56 229.954 203.125 230.381 C 203.725 230.843 204.184 231.377 204.502 232.017 C 204.82 232.658 204.961 233.369 204.961 234.152 C 204.961 234.97 204.608 235.896 203.937 236.927 C 203.266 237.959 202.489 238.813 201.642 239.56 C 200.795 240.308 199.771 240.948 198.606 241.553 C 197.44 242.158 196.169 242.62 194.828 242.976 C 195.075 243.332 195.322 243.616 195.534 243.866 C 195.781 244.115 195.993 244.292 196.24 244.399 C 196.487 244.542 196.734 244.613 196.981 244.648 C 197.229 244.684 197.511 244.719 197.829 244.719 C 198.747 244.684 199.735 244.542 200.759 244.186 C 201.783 243.866 202.807 243.474 203.796 242.976 C 204.784 242.513 205.738 242.015 206.62 241.446 C 207.503 240.912 208.28 240.379 208.915 239.916 C 210.116 241.055 210.681 241.588 211.846 242.763 C 210.398 243.972 208.915 245.04 207.327 245.965 C 206.656 246.356 205.914 246.748 205.173 247.174 C 204.396 247.566 203.619 247.922 202.772 248.242 C 201.924 248.562 201.077 248.811 200.194 248.989 C 199.382 249.167 198.464 249.274 197.546 249.309 Z  M 194.157 239.631 C 194.722 239.596 195.357 239.454 196.028 239.205 C 196.699 238.955 197.335 238.6 197.899 238.208 C 198.464 237.817 199.065 237.283 199.594 236.607 C 200.159 235.931 200.442 235.397 200.442 234.97 C 200.442 234.366 200.3 233.868 200.018 233.476 C 199.735 233.085 199.418 232.907 198.994 232.907 C 198.288 232.907 197.688 233.049 197.193 233.263 C 196.699 233.476 196.275 233.761 195.958 234.117 C 195.64 234.472 195.357 234.864 195.181 235.291 C 195.004 235.718 194.757 236.287 194.51 236.927 C 194.263 237.568 194.122 238.102 194.122 238.529 C 194.157 238.955 194.157 239.311 194.157 239.631 Z " fill="rgb(255,207,153)"/><path d=" M 248.248 239.56 C 247.824 240.165 246.941 241.837 245.635 244.577 C 244.964 245.965 244.54 247.174 244.293 248.242 C 244.081 249.167 244.117 249.95 244.434 250.555 C 244.752 251.195 245.388 251.622 246.376 251.871 C 246.765 251.978 247.224 251.978 247.789 251.907 C 248.354 251.835 249.06 251.693 249.837 251.444 C 250.613 251.195 251.531 250.875 252.555 250.448 C 253.579 250.021 254.744 249.487 256.051 248.918 C 256.086 249.025 256.121 249.238 256.157 249.558 C 256.192 249.843 256.262 250.27 256.333 250.875 C 256.404 251.444 256.51 252.262 256.616 253.259 C 255.203 253.864 253.826 254.397 252.52 254.824 C 251.178 255.251 249.942 255.571 248.742 255.785 C 247.542 255.998 246.447 256.141 245.423 256.141 C 244.399 256.141 243.481 256.07 242.669 255.892 C 241.751 255.678 240.939 255.322 240.198 254.86 C 239.456 254.397 238.856 253.828 238.397 253.116 C 237.938 252.44 237.585 251.622 237.408 250.733 C 237.232 249.843 237.232 248.847 237.444 247.779 C 237.514 247.388 237.655 246.89 237.867 246.285 C 238.079 245.68 238.362 245.04 238.679 244.292 C 238.997 243.545 239.421 242.656 239.915 241.588 C 240.409 240.521 240.939 239.525 241.469 238.564 C 239.28 238.315 237.161 238.102 235.149 237.924 C 233.136 237.746 229.923 237.034 229.111 237.497 C 228.582 237.781 227.875 239.703 227.275 240.841 C 226.675 241.98 226.11 243.012 225.616 243.937 C 225.121 244.862 224.627 245.716 224.203 246.498 C 223.78 247.281 223.427 247.886 223.144 248.384 C 221.873 250.056 221.061 251.017 220.567 251.302 C 219.79 251.764 219.154 251.978 218.59 251.942 C 218.236 251.907 217.883 251.835 217.566 251.693 C 217.248 251.551 216.93 251.409 216.683 251.195 C 216.436 250.982 216.224 250.733 216.083 250.483 C 215.941 250.199 215.871 249.914 215.906 249.594 C 215.906 249.38 215.977 249.167 216.047 248.989 C 216.754 246.819 217.707 244.791 218.766 242.869 C 219.861 240.877 220.849 238.92 221.732 237.105 C 220.849 236.999 220.002 236.856 219.19 236.678 C 218.378 236.5 217.636 236.216 216.965 235.86 C 216.295 235.504 215.694 235.042 215.2 234.472 C 214.706 233.903 214.282 233.191 213.964 232.373 C 213.929 232.124 213.858 231.875 213.858 231.662 C 213.823 231.448 213.823 231.27 213.823 231.057 C 213.858 230.63 214.106 230.416 214.635 230.452 C 214.953 230.487 215.306 230.63 215.659 230.879 C 216.012 231.128 216.471 231.555 217.036 232.16 C 217.813 232.195 218.59 232.231 219.366 232.302 C 220.143 232.373 220.99 232.444 221.873 232.515 C 222.826 232.622 223.285 232.658 224.239 232.765 C 224.98 231.555 225.722 230.416 226.392 229.313 C 227.275 227.89 227.911 226.787 228.334 226.04 C 228.723 225.364 229.041 224.652 229.323 223.976 C 229.605 223.265 229.782 222.589 229.853 221.948 C 229.923 221.414 229.923 220.916 229.853 220.454 C 229.782 219.991 229.641 219.6 229.394 219.244 C 229.146 218.888 228.829 218.604 228.405 218.39 C 227.981 218.141 227.452 217.999 226.816 217.928 C 226.287 217.856 225.686 217.856 224.945 217.928 C 224.239 217.999 223.462 218.141 222.579 218.355 C 221.697 218.568 220.743 218.888 219.719 219.315 C 218.695 219.742 217.566 220.276 216.4 220.916 C 215.977 221.165 215.588 221.308 215.271 221.379 C 214.918 221.45 214.6 221.486 214.353 221.486 C 214.211 221.486 214.106 221.272 214.07 220.916 C 214.035 220.561 214 220.098 214.035 219.564 C 214.07 218.853 214.317 218.177 214.812 217.572 C 215.271 216.967 215.906 216.398 216.683 215.9 C 217.46 215.401 218.342 214.974 219.331 214.619 C 220.32 214.263 221.344 213.978 222.403 213.765 C 223.462 213.551 224.486 213.409 225.51 213.373 C 226.534 213.338 227.487 213.338 228.334 213.444 C 229.605 213.587 230.806 213.871 231.9 214.298 C 233.03 214.725 233.984 215.295 234.76 215.971 C 235.537 216.682 236.102 217.536 236.455 218.497 C 236.808 219.493 236.879 220.632 236.667 221.913 C 236.561 222.517 236.349 223.265 236.031 224.083 C 235.714 224.937 235.29 225.862 234.831 226.858 C 234.337 227.854 233.807 228.922 233.207 230.025 C 232.607 231.128 231.971 232.266 231.335 233.441 C 233.03 233.583 234.937 233.796 237.091 234.081 C 239.209 234.366 241.363 234.686 243.481 235.042 C 244.858 233.014 246.306 230.914 247.824 228.744 C 249.378 226.574 251.037 224.51 252.838 222.517 C 253.438 221.877 254.144 221.379 254.956 221.13 C 255.768 220.845 256.616 220.845 257.569 221.094 C 257.957 221.201 258.31 221.343 258.663 221.521 C 259.016 221.699 259.264 221.913 259.511 222.162 C 259.723 222.411 259.899 222.66 259.97 222.98 C 260.04 223.265 260.04 223.585 259.934 223.941 C 259.864 224.261 259.723 224.617 259.546 225.008 C 259.369 225.399 259.122 225.826 258.769 226.253 C 258.134 226.965 257.498 227.712 256.792 228.53 C 256.086 229.349 255.415 230.167 254.709 231.057 C 254.003 231.911 253.297 232.836 252.59 233.761 C 251.884 234.686 251.213 235.611 250.578 236.536 C 251.39 236.643 252.202 236.75 252.979 236.892 C 253.756 237.034 254.356 237.176 254.744 237.248 C 254.921 237.283 255.097 237.319 255.239 237.354 C 255.38 237.39 255.556 237.426 255.662 237.461 C 256.157 237.603 256.58 237.746 256.863 237.924 C 257.145 238.102 257.357 238.279 257.498 238.457 C 257.639 238.671 257.71 238.849 257.71 239.098 C 257.71 239.311 257.675 239.56 257.604 239.809 C 257.534 240.058 257.392 240.272 257.18 240.414 C 256.969 240.557 256.757 240.628 256.51 240.663 C 256.262 240.699 255.98 240.699 255.733 240.699 C 255.486 240.663 255.239 240.628 254.991 240.592 C 254.532 240.485 254.215 240.45 254.003 240.414 C 253.791 240.379 253.65 240.343 253.579 240.343 C 253.473 240.343 253.438 240.308 253.403 240.308 C 253.367 240.308 253.332 240.308 253.226 240.272 C 253.12 240.272 252.944 240.236 252.732 240.165 C 252.485 240.13 252.096 240.023 251.602 239.952 C 251.037 239.881 250.437 239.809 249.872 239.738 C 249.342 239.703 248.813 239.631 248.248 239.56 Z " fill="rgb(255,207,153)"/><path d=" M 278.859 245.502 C 278.718 245.858 278.506 246.321 278.259 246.89 C 277.976 247.459 277.623 248.064 277.2 248.704 C 276.776 249.345 276.211 250.092 275.611 251.017 C 275.011 251.942 274.481 252.654 274.093 253.259 C 273.704 253.864 273.351 254.362 273.033 254.824 C 272.751 255.251 272.539 255.607 272.468 255.82 C 272.327 256.176 272.221 256.496 272.115 256.817 C 272.009 257.137 271.939 257.386 271.904 257.635 C 271.868 257.884 271.904 258.098 272.009 258.276 C 272.08 258.453 272.257 258.596 272.504 258.702 C 272.822 258.845 273.245 258.916 273.775 258.987 C 274.304 259.023 274.869 259.058 275.47 259.058 C 276.07 259.058 276.741 259.023 277.412 258.952 C 278.082 258.88 278.718 258.809 279.353 258.702 C 279.989 258.596 280.589 258.489 281.119 258.347 C 281.684 258.204 282.143 258.062 282.496 257.92 C 282.319 258.347 282.143 258.702 282.001 259.058 C 281.86 259.414 281.719 259.734 281.578 260.019 C 281.437 260.339 281.295 260.659 281.154 260.98 C 281.013 261.3 280.836 261.656 280.66 262.083 C 280.236 262.189 279.706 262.296 279.106 262.403 C 278.506 262.51 277.835 262.581 277.129 262.616 C 276.423 262.687 275.681 262.723 274.94 262.723 C 274.199 262.723 273.422 262.723 272.716 262.652 C 271.974 262.616 271.268 262.51 270.633 262.403 C 269.962 262.296 269.361 262.118 268.832 261.905 C 268.302 261.691 267.879 261.407 267.561 261.086 C 267.243 260.766 267.031 260.375 266.855 259.912 C 266.713 259.45 266.607 258.987 266.607 258.418 C 266.572 257.884 266.607 257.279 266.678 256.639 C 265.937 257.03 265.16 257.386 264.418 257.671 C 263.642 257.955 262.9 258.204 262.159 258.347 C 261.417 258.489 260.711 258.596 260.04 258.596 C 259.334 258.596 258.734 258.525 258.134 258.311 C 257.639 258.169 257.216 257.955 256.863 257.671 C 256.51 257.386 256.192 257.03 255.945 256.603 C 255.733 256.176 255.592 255.643 255.556 255.002 C 255.521 254.397 255.627 253.65 255.874 252.832 C 256.404 251.124 256.933 249.843 257.498 249.025 C 258.346 247.815 259.405 245.965 260.605 243.439 C 260.711 243.261 260.852 243.012 261.029 242.691 C 261.205 242.371 261.417 242.051 261.7 241.695 C 261.982 241.339 262.3 241.019 262.653 240.663 C 263.006 240.343 263.395 240.058 263.783 239.809 C 264.207 239.596 264.63 239.418 265.125 239.347 C 265.619 239.276 266.113 239.311 266.607 239.489 C 267.42 239.774 268.02 240.13 268.338 240.45 C 268.655 240.77 268.761 241.055 268.655 241.339 C 268.196 242.158 267.773 242.94 267.314 243.688 C 266.855 244.435 266.396 245.182 265.937 245.929 C 265.478 246.676 264.983 247.53 264.418 248.455 C 263.854 249.38 263.43 250.128 263.112 250.697 C 262.794 251.266 262.512 251.729 262.3 252.049 C 262.088 252.405 261.982 252.583 261.982 252.583 C 261.912 252.832 261.841 253.081 261.841 253.294 C 261.806 253.543 261.841 253.757 261.876 253.97 C 261.912 254.184 262.018 254.362 262.123 254.54 C 262.229 254.717 262.441 254.824 262.653 254.895 C 262.971 255.002 263.359 255.038 263.748 255.002 C 264.136 254.967 264.56 254.86 264.948 254.682 C 265.336 254.54 265.76 254.291 266.148 253.97 C 266.537 253.65 266.89 253.259 267.208 252.761 C 269.326 249.558 271.445 246.392 273.634 243.225 C 273.81 242.94 274.234 242.798 274.869 242.798 C 275.505 242.798 276.14 242.94 276.847 243.225 C 277.623 243.545 278.188 243.901 278.577 244.328 C 278.894 244.755 279 245.146 278.859 245.502 Z " fill="rgb(255,207,153)"/><path d=" M 290.405 253.543 C 291.676 253.116 292.77 252.832 293.759 252.689 C 294.712 252.547 295.559 252.654 296.266 253.045 C 297.148 253.508 297.89 254.113 298.419 254.789 C 298.949 255.465 299.302 256.212 299.514 256.995 C 299.726 257.777 299.761 258.56 299.62 259.378 C 299.514 260.197 299.231 260.944 298.843 261.656 C 298.49 262.26 298.137 262.83 297.784 263.328 C 297.431 263.826 297.007 264.324 296.583 264.751 C 296.124 265.178 295.63 265.605 295.1 265.961 C 294.536 266.317 293.9 266.672 293.194 266.993 C 293.829 267.028 294.5 267.064 295.136 267.099 C 295.807 267.171 296.477 267.206 297.148 267.206 C 297.854 267.242 298.561 267.206 299.302 267.171 C 300.043 267.135 300.856 267.064 301.703 266.921 C 301.668 268.487 301.632 269.27 301.562 270.835 C 300.432 270.942 299.373 271.013 298.349 270.978 C 297.325 270.978 296.336 270.906 295.348 270.764 C 294.359 270.622 293.37 270.444 292.382 270.195 C 291.393 269.946 290.334 269.661 289.275 269.341 C 288.922 269.412 288.498 269.448 287.968 269.448 C 287.439 269.448 286.944 269.412 286.45 269.377 C 285.885 269.341 285.32 269.27 284.685 269.199 C 284.473 269.092 284.367 269.056 284.155 268.95 C 282.001 267.847 280.801 267.277 280.66 267.135 C 279.177 265.925 278.259 265.107 277.906 264.68 C 277.306 263.862 276.741 263.008 276.176 262.189 C 276.67 261.193 277.235 260.09 277.941 258.845 C 278.541 257.777 279.283 256.496 280.201 254.967 C 281.542 252.725 282.708 251.124 283.343 250.163 C 284.049 249.131 284.826 247.637 285.744 246.321 C 286.45 245.289 287.474 244.008 288.639 242.478 C 289.804 240.948 291.04 239.596 292.382 238.457 C 293.723 237.319 295.065 236.394 296.407 235.647 C 297.749 234.935 299.09 234.472 300.432 234.294 C 301.738 234.117 302.974 234.33 304.104 234.899 C 305.375 235.575 306.328 236.251 306.893 236.999 C 307.493 237.71 307.846 238.457 307.952 239.24 C 308.058 239.987 307.988 240.77 307.74 241.553 C 307.493 242.336 307.105 243.154 306.681 243.972 C 306.046 245.111 305.128 246.107 303.927 247.032 C 302.727 247.922 301.35 248.74 299.796 249.487 C 298.278 250.234 296.654 250.875 294.995 251.48 C 293.335 252.085 291.711 252.654 290.122 253.152 C 290.228 253.294 290.299 253.365 290.405 253.543 Z  M 291.782 255.892 C 291.252 255.607 290.687 255.465 290.087 255.358 C 289.487 255.287 288.851 255.322 288.216 255.465 C 287.58 255.643 286.944 255.927 286.309 256.354 C 285.073 257.208 284.508 257.813 284.544 258.133 C 284.544 258.169 284.085 258.845 283.202 260.232 C 282.849 260.731 282.566 261.229 282.319 261.62 C 282.037 262.083 281.719 262.51 281.472 262.937 C 281.896 263.292 282.319 263.613 282.743 263.933 C 283.131 264.217 283.555 264.431 284.049 264.573 C 284.544 264.751 284.967 264.929 285.391 265.142 C 285.885 265.392 286.38 265.498 286.909 265.427 C 287.439 265.392 287.968 265.249 288.463 265 C 288.992 264.751 289.487 264.431 289.981 264.004 C 290.475 263.613 290.97 263.15 291.393 262.652 C 291.817 262.154 292.241 261.656 292.594 261.158 C 292.947 260.624 293.264 260.161 293.512 259.699 C 293.688 259.378 293.794 259.094 293.829 258.774 C 293.9 258.453 293.865 258.133 293.759 257.813 C 293.653 257.493 293.441 257.173 293.123 256.852 C 292.806 256.496 292.347 256.176 291.782 255.892 Z  M 302.586 240.414 C 302.621 240.379 302.656 240.272 302.727 240.094 C 302.797 239.916 302.797 239.738 302.797 239.525 C 302.797 239.311 302.762 239.098 302.656 238.884 C 302.55 238.671 302.374 238.493 302.091 238.351 C 301.774 238.173 301.35 238.173 300.82 238.351 C 300.291 238.529 299.726 238.813 299.09 239.24 C 298.455 239.667 297.784 240.165 297.078 240.806 C 296.372 241.411 295.665 242.087 294.959 242.798 C 294.253 243.51 293.547 244.257 292.876 245.04 C 292.205 245.822 291.57 246.534 291.005 247.246 C 290.405 247.922 289.875 248.562 289.416 249.131 C 288.922 249.701 288.533 250.163 288.251 250.555 C 288.957 250.092 289.734 249.665 290.581 249.203 C 291.429 248.776 292.311 248.313 293.194 247.815 C 294.077 247.317 294.995 246.819 295.877 246.321 C 296.76 245.787 297.643 245.253 298.455 244.648 C 299.302 244.043 300.043 243.403 300.75 242.727 C 301.42 241.98 302.056 241.233 302.586 240.414 Z " fill="rgb(255,207,153)"/></g></g></g></g><g id="cupOfCoffee"><g id="hot-cup"><path d=" M 202.075 113.323 C 201.093 114.154 201.066 115.526 202.014 116.386 C 202.963 117.247 204.529 117.27 205.511 116.439 C 205.532 116.422 205.552 116.404 205.572 116.386 L 206.685 115.411 C 210.507 112.066 210.51 106.64 206.691 103.292 C 206.236 102.893 205.737 102.535 205.201 102.221 C 202.977 100.925 202.374 98.295 203.854 96.347 C 204.031 96.114 204.233 95.897 204.459 95.699 L 205.572 94.724 C 206.554 93.893 206.581 92.522 205.633 91.661 C 204.684 90.801 203.118 90.777 202.136 91.608 C 202.115 91.625 202.095 91.643 202.075 91.661 L 200.962 92.636 C 197.14 95.981 197.137 101.407 200.956 104.755 C 201.411 105.154 201.91 105.513 202.446 105.826 C 204.67 107.122 205.273 109.752 203.793 111.701 C 203.616 111.933 203.414 112.15 203.188 112.348 L 202.075 113.323 Z " fill="rgb(91,48,0)"/><path d=" M 216.913 113.323 C 215.93 114.154 215.903 115.526 216.852 116.386 C 217.801 117.247 219.367 117.27 220.349 116.439 C 220.37 116.422 220.39 116.404 220.41 116.386 L 221.522 115.411 C 225.345 112.066 225.347 106.64 221.529 103.292 C 221.074 102.893 220.574 102.535 220.039 102.221 C 217.815 100.925 217.211 98.295 218.691 96.347 C 218.868 96.114 219.071 95.897 219.297 95.699 L 220.41 94.724 C 221.392 93.893 221.419 92.522 220.47 91.661 C 219.521 90.801 217.956 90.777 216.973 91.608 C 216.953 91.626 216.933 91.643 216.913 91.661 L 215.8 92.636 C 211.978 95.981 211.975 101.407 215.794 104.755 C 216.249 105.154 216.748 105.513 217.284 105.826 C 219.508 107.122 220.111 109.752 218.631 111.701 C 218.454 111.933 218.251 112.15 218.026 112.348 L 216.913 113.323 Z " fill="rgb(91,48,0)"/><path d=" M 187.238 113.323 C 186.255 114.154 186.228 115.526 187.177 116.386 C 188.125 117.247 189.691 117.27 190.673 116.439 C 190.694 116.422 190.714 116.404 190.734 116.386 L 191.847 115.411 C 195.669 112.066 195.672 106.64 191.853 103.292 C 191.398 102.893 190.899 102.535 190.363 102.221 C 188.139 100.925 187.536 98.295 189.016 96.347 C 189.193 96.114 189.396 95.897 189.621 95.699 L 190.734 94.724 C 191.717 93.893 191.744 92.522 190.795 91.661 C 189.846 90.801 188.281 90.777 187.298 91.608 C 187.278 91.625 187.258 91.643 187.238 91.661 L 186.125 92.636 C 182.302 95.981 182.3 101.407 186.119 104.755 C 186.574 105.154 187.073 105.513 187.608 105.826 C 189.833 107.122 190.436 109.752 188.956 111.701 C 188.779 111.933 188.576 112.15 188.35 112.348 L 187.238 113.323 Z " fill="rgb(91,48,0)"/><path d=" M 248.336 166.843 L 253.282 166.843 C 266.94 166.843 278.012 157.144 278.012 145.181 C 278.012 142.788 275.798 140.849 273.066 140.849 L 255.755 140.849 L 255.755 132.184 L 273.066 132.184 C 281.261 132.184 287.904 138.003 287.904 145.181 C 287.904 161.93 272.403 175.507 253.282 175.507 L 238.445 175.507 L 248.336 166.843 Z " fill="rgb(165,64,45)"/><path d=" M 263.174 121.353 C 263.174 146.804 254.776 171.712 238.991 193.079 L 235.972 197.169 L 235.972 199.335 L 171.675 199.335 L 171.675 197.169 L 168.656 193.079 C 155.321 175.029 147.258 154.452 145.076 133.155 C 144.675 129.242 144.473 125.304 144.473 121.353 L 263.174 121.353 Z " fill="rgb(165,64,45)"/><path d=" M 165.923 166.059 C 163.16 159.825 160.949 153.415 159.311 146.884 C 159.052 145.709 157.756 144.94 156.415 145.166 C 155.074 145.392 154.196 146.528 154.454 147.703 C 154.462 147.739 154.471 147.775 154.481 147.811 C 156.171 154.56 158.453 161.185 161.306 167.627 C 161.676 168.46 162.591 169.009 163.611 169.009 C 164.977 169.01 166.085 168.041 166.086 166.845 C 166.086 166.576 166.03 166.309 165.918 166.059 L 165.923 166.059 L 165.923 166.059 Z " fill="rgb(255,207,153)"/><path d=" M 171.428 176.95 C 170.983 176.166 170.546 175.377 170.117 174.582 C 169.561 173.49 168.098 173 166.851 173.488 C 165.604 173.975 165.044 175.256 165.601 176.349 C 165.615 176.377 165.631 176.405 165.646 176.433 C 166.086 177.251 166.537 178.066 166.999 178.876 C 167.633 179.936 169.128 180.344 170.338 179.788 C 171.509 179.25 171.99 177.999 171.428 176.95 Z " fill="rgb(255,207,153)"/></g></g><g id="coffee-grain"><g id="Group"><path d=" M 252.141 292.829 C 251.884 292.552 251.906 292.097 252.187 291.847 C 255.86 288.583 262.206 289.73 266.728 294.61 C 271.25 299.489 272.313 306.335 269.288 310.298 C 269.057 310.601 268.635 310.625 268.378 310.348 L 252.141 292.829 Z " fill="rgb(91,48,0)"/><path d=" M 266.859 311.987 C 267.116 312.264 267.094 312.719 266.813 312.969 C 263.14 316.233 256.794 315.085 252.272 310.206 C 247.75 305.327 246.687 298.481 249.712 294.518 C 249.943 294.215 250.365 294.191 250.622 294.468 L 266.859 311.987 Z " fill="rgb(91,48,0)"/></g><g id="Group"><path d=" M 252.141 292.829 C 251.884 292.552 251.906 292.097 252.187 291.847 C 254.1 290.148 256.737 289.644 259.465 290.241 L 259.461 300.726 L 252.141 292.829 Z " fill="rgb(165,64,45)"/><path d=" M 259.494 314.566 C 256.997 314.009 254.427 312.532 252.272 310.206 C 247.75 305.327 246.687 298.481 249.712 294.518 C 249.943 294.215 250.365 294.191 250.622 294.468 L 259.468 304.013 L 259.494 314.566 Z " fill="rgb(165,64,45)"/></g></g><g id="coffee-grain"><g id="Group"><path d=" M 130.141 292.829 C 129.884 292.552 129.906 292.097 130.187 291.847 C 133.86 288.583 140.206 289.73 144.728 294.61 C 149.25 299.489 150.313 306.335 147.288 310.298 C 147.057 310.601 146.635 310.625 146.378 310.348 L 130.141 292.829 Z " fill="rgb(91,48,0)"/><path d=" M 144.859 311.987 C 145.116 312.264 145.094 312.719 144.813 312.969 C 141.14 316.233 134.794 315.085 130.272 310.206 C 125.75 305.327 124.687 298.481 127.712 294.518 C 127.943 294.215 128.365 294.191 128.622 294.468 L 144.859 311.987 Z " fill="rgb(91,48,0)"/></g><g id="Group"><path d=" M 130.141 292.829 C 129.884 292.552 129.906 292.097 130.187 291.847 C 132.1 290.148 134.737 289.644 137.465 290.241 L 137.461 300.726 L 130.141 292.829 Z " fill="rgb(165,64,45)"/><path d=" M 137.494 314.566 C 134.997 314.009 132.427 312.532 130.272 310.206 C 125.75 305.327 124.687 298.481 127.712 294.518 C 127.943 294.215 128.365 294.191 128.622 294.468 L 137.468 304.013 L 137.494 314.566 Z " fill="rgb(165,64,45)"/></g></g></g></svg>